# xmcd
#
# Track frame offsets:
#	150
#	20925
#	39600
#	56400
#	80850
#	95925
#	109650
#	131925
#	150225
#	169350
#	185925
#
# Disc length: 2652 seconds
#
# Revision: 0
# Processed by: cddbd v1.5.2PL0 Copyright (c) Steve Scherf et al.
# Submitted via: audiograbber 1.83.01
#
DISCID=a30a5a0b
DTITLE=Lady Antebellum - Need You Now
DYEAR=2009
DGENRE=Country
TTITLE0=Need You Now
TTITLE1=Our Kind Of Love
TTITLE2=American Honey
TTITLE3=Hello World
TTITLE4=Perfect Day
TTITLE5=Love This Pain
TTITLE6=When You Got A Good Thing
TTITLE7=Stars Tonight
TTITLE8=If I Knew Then
TTITLE9=Something 'Bout A Woman
TTITLE10=Ready To Love Again
EXTD=
EXTT0=
EXTT1=
EXTT2=
EXTT3=
EXTT4=
EXTT5=
EXTT6=
EXTT7=
EXTT8=
EXTT9=
EXTT10=
PLAYORDER=
